# File created by Blade
# Date/Time:  Wed Apr 08 17:12:22 2015
#---------------------------------------------------------
:version 1.10
:name HOM
:units
  mass 1.0
  length 1.000000
  angle deg
:documentation
     Acclaim Skeleton File
:root
   axis xyz
   order TX TY TZ RX RY RZ
   position 0.000000 0.000000 0.000000
   orientation 0 0 0
:bonedata
   begin
      id 1
      name Spine_dum
      direction 0.000000 1.000000 0.000000
      length 5.893853
      axis 0.0 0.0 0.0 xyz
   end
   begin
      id 2
      name LeftUpLeg_dum
      direction 1.000000 0.000000 0.000000
      length 3.697939
      axis 0.0 0.0 0.0 xyz
   end
   begin
      id 3
      name RightUpLeg_dum
      direction -1.000000 0.000000 0.000000
      length 3.697939
      axis 0.0 0.0 0.0 xyz
   end
   begin
      id 4
      name Spine
      direction 0.000000 1.000000 0.000000
      length 0.000000
      axis 0.0 0.0 0.0 xyz
      dof rx ry rz
   end
   begin
      id 5
      name Spine_dum1
      direction 0.000000 1.000000 0.000000
      length 16.447146
      axis 0.0 0.0 0.0 xyz
   end
   begin
      id 6
      name Spine_dum2
      direction 0.000000 1.000000 0.000000
      length 10.900383
      axis 0.0 0.0 0.0 xyz
   end
   begin
      id 7
      name Spine_dum3
      direction 0.000000 1.000000 0.000000
      length 10.900383
      axis 0.0 0.0 0.0 xyz
   end
   begin
      id 8
      name Head
      direction 0.000000 1.000000 0.000000
      length 4.527550
      axis 0.0 0.0 0.0 xyz
      dof rx ry rz
   end
   begin
      id 9
      name LeftShoulder
      direction 1.000000 0.000000 0.000000
      length 8.219464
      axis 0.0 0.0 -90.0 xyz
      dof rx ry rz
   end
   begin
      id 10
      name LeftArm
      direction 1.000000 0.000000 0.000000
      length 11.094937
      axis 0.0 0.0 -90.0 xyz
      dof rx ry rz
   end
   begin
      id 11
      name LeftForeArm
      direction 1.000000 0.000000 0.000000
      length 9.103875
      axis 0.0 0.0 -90.0 xyz
      dof ry rz rx
   end
   begin
      id 12
      name LeftHand
      direction 0.000000 0.000000 0.000000
      length 0.000000
      axis 0.0 0.0 -90.0 xyz
      dof rx ry rz
   end
   begin
      id 13
      name LeftHand_dum1
      direction 0.000000 0.000000 0.000000
      length 0.000000
      axis 0.0 0.0 -90.0 xyz
   end
   begin
      id 14
      name LeftHand_dum2
      direction 1.000000 0.000000 0.000000
      length 3.937000
      axis 0.0 0.0 -90.0 xyz
   end
   begin
      id 15
      name LeftHandThumb1
      direction 0.000000 0.000000 1.000000
      length 3.937000
      axis 0.0 0.0 -90.0 xyz
      dof rx rz ry
   end
   begin
      id 16
      name RightShoulder
      direction -1.000000 0.000000 0.000000
      length 8.219464
      axis 0.0 0.0 90.0 xyz
      dof rx ry rz
   end
   begin
      id 17
      name RightArm
      direction -1.000000 0.000000 0.000000
      length 11.094937
      axis 0.0 0.0 90.0 xyz
      dof rx ry rz
   end
   begin
      id 18
      name RightForeArm
      direction -1.000000 0.000000 0.000000
      length 9.103875
      axis 0.0 0.0 90.0 xyz
      dof ry rz rx
   end
   begin
      id 19
      name RightHand
      direction 0.000000 0.000000 0.000000
      length 0.000000
      axis 0.0 0.0 90.0 xyz
      dof rx ry rz
   end
   begin
      id 20
      name RightHand_dum1
      direction 0.000000 0.000000 0.000000
      length 0.000000
      axis 0.0 0.0 90.0 xyz
   end
   begin
      id 21
      name RightHand_dum2
      direction -1.000000 0.000000 0.000000
      length 3.937000
      axis 0.0 0.0 90.0 xyz
   end
   begin
      id 22
      name RightHandThumb1
      direction 0.000000 0.000000 1.000000
      length 3.937000
      axis 0.0 0.0 90.0 xyz
      dof rx rz ry
   end
   begin
      id 23
      name LeftUpLeg
      direction 0.000000 -1.000000 0.000000
      length 16.181467
      axis 0.0 0.0 0.0 xyz
      dof rx ry rz
   end
   begin
      id 24
      name LeftLeg
      direction 0.000000 -1.000000 0.000000
      length 16.501392
      axis 0.0 0.0 0.0 xyz
      dof rx ry rz
   end
   begin
      id 25
      name LeftFoot
      direction 0.000000 -0.258819 0.965926
      length 6.408245
      axis 15.0 0.0 0.0 xyz
      dof rx ry rz
   end
   begin
      id 26
      name LeftToeBase
      direction 0.000000 0.000000 1.000000
      length 2.952750
      axis 0.0 0.0 0.0 xyz
      dof rx ry rz
   end
   begin
      id 27
      name RightUpLeg
      direction 0.000000 -1.000000 0.000000
      length 16.181467
      axis 0.0 0.0 0.0 xyz
      dof rx ry rz
   end
   begin
      id 28
      name RightLeg
      direction 0.000000 -1.000000 0.000000
      length 16.501392
      axis 0.0 0.0 0.0 xyz
      dof rx ry rz
   end
   begin
      id 29
      name RightFoot
      direction 0.000000 -0.258819 0.965926
      length 6.408245
      axis 15.0 0.0 0.0 xyz
      dof rx ry rz
   end
   begin
      id 30
      name RightToeBase
      direction 0.000000 0.000000 1.000000
      length 2.952750
      axis 0.0 0.0 0.0 xyz
      dof rx ry rz
   end
:hierarchy
   begin
      root Spine_dum LeftUpLeg_dum RightUpLeg_dum
      Spine_dum Spine
      LeftUpLeg_dum LeftUpLeg
      RightUpLeg_dum RightUpLeg
      Spine Spine_dum1 Spine_dum2 Spine_dum3
      Spine_dum1 Head
      Spine_dum2 LeftShoulder
      Spine_dum3 RightShoulder
      LeftShoulder LeftArm
      LeftArm LeftForeArm
      LeftForeArm LeftHand
      LeftHand LeftHand_dum1 LeftHand_dum2
      LeftHand_dum1 LeftHandThumb1
      RightShoulder RightArm
      RightArm RightForeArm
      RightForeArm RightHand
      RightHand RightHand_dum1 RightHand_dum2
      RightHand_dum1 RightHandThumb1
      LeftUpLeg LeftLeg
      LeftLeg LeftFoot
      LeftFoot LeftToeBase
      RightUpLeg RightLeg
      RightLeg RightFoot
      RightFoot RightToeBase
   end

# File created by Blade
# Date/Time:  Wed Apr 08 17:12:12 2015
# Frame Rate: 120.000 fps
#------------------------------------------------------
:FULLY-SPECIFIED
:DEGREES
165
root 4.227103 37.362541 2.653324 44.703167 -34.609414 -26.525033
Spine -25.670468 4.546953 20.560513
Head 12.249816 6.674786 8.442063
LeftShoulder -3.400578 26.084925 15.940845
LeftArm 36.663210 36.670628 -69.983959
LeftForeArm 15.257317 -0.000000 58.621103
LeftHand -11.596668 -0.000000 -9.783418
LeftHandThumb1 -26.253704 0.000000 33.147579
RightShoulder -21.890008 -55.100490 16.125482
RightArm 69.084309 -0.603638 50.323850
RightForeArm 31.888402 -0.000000 17.594649
RightHand 4.240192 -0.000000 16.386054
RightHandThumb1 -24.326973 -0.000000 -32.862282
LeftUpLeg -41.542591 13.725498 12.757385
LeftLeg 27.927327 -0.000000 -0.000000
LeftFoot -13.052532 -10.284627 -14.764946
LeftToeBase 18.691766 -0.000000 -0.000000
RightUpLeg -129.519499 -5.973517 21.376799
RightLeg 132.120217 -0.000000 -0.000000
RightFoot 22.239886 5.069421 30.827061
RightToeBase -3.313398 -0.000000 0.000000
166
root 4.183652 37.369380 2.640632 44.298684 -33.894190 -26.450628
Spine -25.500476 4.521491 20.660282
Head 12.214279 6.590468 8.439283
LeftShoulder -3.455079 26.134379 15.870537
LeftArm 36.562824 36.629774 -69.930221
LeftForeArm 15.155407 -0.000000 58.690110
LeftHand -11.888014 -0.000000 -9.574965
LeftHandThumb1 -26.253704 0.000000 33.147579
RightShoulder -21.763057 -55.079585 16.063912
RightArm 69.054595 -0.575705 50.341170
RightForeArm 32.076752 -0.000000 17.664918
RightHand 4.061065 -0.000000 16.974269
RightHandThumb1 -24.326973 -0.000000 -32.862282
LeftUpLeg -41.493508 13.797563 13.009841
LeftLeg 28.039968 -0.000000 -0.000000
LeftFoot -12.884185 -10.813454 -14.964063
LeftToeBase 18.349594 -0.000000 -0.000000
RightUpLeg -129.560824 -6.040430 21.399886
RightLeg 132.250234 -0.000000 -0.000000
RightFoot 22.653261 5.161786 30.786230
RightToeBase -3.794531 -0.000000 0.000000
167
root 4.137895 37.368425 2.632817 43.726576 -33.235000 -26.383707
Spine -25.113876 4.494220 20.720541
Head 12.129128 6.475404 8.427124
LeftShoulder -3.510567 26.157367 15.797101
LeftArm 36.489260 36.557275 -69.881168
LeftForeArm 15.118506 -0.000000 58.689093
LeftHand -12.113428 -0.000000 -9.367461
LeftHandThumb1 -26.253704 0.000000 33.147579
RightShoulder -21.640600 -55.037378 15.983254
RightArm 69.062776 -0.607122 50.291739
RightForeArm 32.202719 0.000000 17.698454
RightHand 4.002016 -0.000000 17.377620
RightHandThumb1 -24.326973 -0.000000 -32.862282
LeftUpLeg -41.265163 13.843617 13.263669
LeftLeg 28.186987 -0.000000 -0.000000
LeftFoot -12.804705 -11.269908 -15.083555
LeftToeBase 17.868643 -0.000000 -0.000000
RightUpLeg -129.419608 -6.134534 21.352638
RightLeg 132.406215 -0.000000 -0.000000
RightFoot 22.931505 5.157766 30.775031
RightToeBase -3.863088 -0.000000 0.000000
168
root 4.099906 37.376437 2.618167 43.448499 -32.597672 -26.331560
Spine -25.048305 4.628410 20.714897
Head 12.079436 6.265339 8.427822
LeftShoulder -3.515392 26.179153 15.775241
LeftArm 36.333384 36.448955 -69.920841
LeftForeArm 15.143829 -0.000000 58.661054
LeftHand -12.324386 -0.000000 -9.398658
LeftHandThumb1 -26.253704 0.000000 33.147579
RightShoulder -21.580482 -54.989286 15.949666
RightArm 68.977218 -0.705883 50.204801
RightForeArm 32.348222 0.000000 17.788203
RightHand 3.991517 0.000000 17.685165
RightHandThumb1 -24.326973 -0.000000 -32.862282
LeftUpLeg -41.261739 13.818205 13.517919
LeftLeg 28.221770 -0.000000 -0.000000
LeftFoot -12.652398 -11.563216 -15.310199
LeftToeBase 17.318005 -0.000000 -0.000000
RightUpLeg -129.498204 -6.090747 21.347094
RightLeg 132.484025 -0.000000 -0.000000
RightFoot 23.159208 5.090228 30.708815
RightToeBase -3.852105 -0.000000 0.000000
169
root 4.053941 37.371630 2.615492 42.832558 -31.953223 -26.267092
Spine -24.615545 4.637163 20.761582
Head 11.965606 6.067624 8.348402
LeftShoulder -3.517418 26.155327 15.702563
LeftArm 36.177657 36.297749 -69.996340
LeftForeArm 15.400503 -0.000000 58.567752
LeftHand -12.431456 -0.000000 -9.362709
LeftHandThumb1 -26.253704 0.000000 33.147579
RightShoulder -21.520699 -55.013668 15.922584
RightArm 68.996143 -0.667375 50.175565
RightForeArm 32.474820 0.000000 17.883892
RightHand 3.749152 -0.000000 18.196886
RightHandThumb1 -24.326973 -0.000000 -32.862282
LeftUpLeg -40.916693 13.668641 13.846152
LeftLeg 28.297731 -0.000000 -0.000000
LeftFoot -12.553155 -11.815178 -15.500329
LeftToeBase 16.188660 -0.000000 -0.000000
RightUpLeg -129.251743 -6.192793 21.258623
RightLeg 132.598515 -0.000000 -0.000000
RightFoot 23.503282 5.029942 30.734397
RightToeBase -4.077920 -0.000000 0.000000
170
root 4.003842 37.365790 2.612419 42.191752 -31.313865 -26.236993
Spine -24.138512 4.626015 20.807357
Head 11.890519 5.906449 8.338399
LeftShoulder -3.532399 26.116127 15.673688
LeftArm 36.057829 36.204362 -70.033142
LeftForeArm 15.659415 -0.000000 58.394454
LeftHand -12.525304 -0.000000 -9.122902
LeftHandThumb1 -26.253704 0.000000 33.147579
RightShoulder -21.436545 -55.037446 15.966389
RightArm 68.893742 -0.772577 49.341552
RightForeArm 33.227056 -0.000000 18.236607
RightHand 3.656167 -0.000000 18.378585
RightHandThumb1 -24.326973 -0.000000 -32.862282
LeftUpLeg -40.517725 13.519542 14.200852
LeftLeg 28.374819 -0.000000 -0.000000
LeftFoot -12.589202 -12.059641 -15.527243
LeftToeBase 15.475161 -0.000000 -0.000000
RightUpLeg -128.936432 -6.286574 21.181917
RightLeg 132.695419 -0.000000 -0.000000
RightFoot 23.873445 4.919455 30.910203
RightToeBase -4.218085 -0.000000 0.000000
171
root 3.957810 37.360009 2.606285 41.646864 -30.679156 -26.165819
Spine -23.785297 4.657778 20.787028
Head 11.723014 5.760402 8.346641
LeftShoulder -3.584060 26.021215 15.674035
LeftArm 35.952366 36.193883 -70.047815
LeftForeArm 15.796711 -0.000000 58.149127
LeftHand -12.660234 -0.000000 -8.990582
LeftHandThumb1 -26.253704 0.000000 33.147579
RightShoulder -21.390292 -55.003940 15.984978
RightArm 68.817534 -0.910711 48.818311
RightForeArm 33.527051 -0.000000 18.479401
RightHand 3.608987 -0.000000 18.907617
RightHandThumb1 -24.326973 -0.000000 -32.862282
LeftUpLeg -40.231176 13.305414 14.523975
LeftLeg 28.419456 -0.000000 -0.000000
LeftFoot -12.636120 -12.276420 -15.551957
LeftToeBase 14.883981 -0.000000 -0.000000
RightUpLeg -128.755626 -6.374819 21.151260
RightLeg 132.774189 -0.000000 -0.000000
RightFoot 24.321560 4.781718 30.917625
RightToeBase -4.157942 -0.000000 0.000000
172
root 3.895442 37.341102 2.608129 40.639098 -30.038334 -26.137385
Spine -22.873619 4.535543 20.814293
Head 11.494237 5.615675 8.414605
LeftShoulder -3.571703 25.902047 15.673195
LeftArm 35.885087 36.069095 -70.057117
LeftForeArm 15.845442 -0.000000 57.871170
LeftHand -12.811185 0.000000 -8.975844
LeftHandThumb1 -26.253704 0.000000 33.147579
RightShoulder -21.319605 -54.999584 16.134202
RightArm 68.722794 -0.954900 47.807286
RightForeArm 34.142115 -0.000000 18.945420
RightHand 3.422752 -0.000000 19.047650
RightHandThumb1 -24.326973 -0.000000 -32.862282
LeftUpLeg -39.453902 13.036487 14.984490
LeftLeg 28.504551 -0.000000 -0.000000
LeftFoot -12.786585 -12.617937 -15.615617
LeftToeBase 14.348470 -0.000000 -0.000000
RightUpLeg -128.126774 -6.585825 21.097748
RightLeg 132.891407 -0.000000 -0.000000
RightFoot 24.808894 4.616273 30.949702
RightToeBase -4.091328 -0.000000 0.000000
173
root 3.848187 37.334954 2.602622 40.132836 -29.424547 -26.100014
Spine -22.559049 4.599281 20.806618
Head 11.407073 5.508132 8.417595
LeftShoulder -3.581281 25.868245 15.686266
LeftArm 35.783725 36.044292 -70.063320
LeftForeArm 15.609266 0.000000 57.559508
LeftHand -12.881925 -0.000000 -8.546583
LeftHandThumb1 -26.253704 0.000000 33.147579
RightShoulder -21.325569 -55.040222 16.221035
RightArm 68.690766 -1.040402 47.167759
RightForeArm 34.394774 0.000000 19.248730
RightHand 3.391923 -0.000000 19.339969
RightHandThumb1 -24.326973 -0.000000 -32.862282
LeftUpLeg -39.182303 12.813470 15.331465
LeftLeg 28.560310 -0.000000 -0.000000
LeftFoot -12.806709 -12.884295 -15.647912
LeftToeBase 13.296982 -0.000000 -0.000000
RightUpLeg -127.881462 -6.552694 21.018011
RightLeg 132.930171 -0.000000 -0.000000
RightFoot 25.109783 4.602780 30.787843
RightToeBase -3.912548 -0.000000 0.000000
174
root 3.793642 37.319704 2.607101 39.338308 -28.840702 -26.020933
Spine -21.963936 4.559469 20.744987
Head 11.316481 5.427450 8.508388
LeftShoulder -3.445735 25.768001 15.823652
LeftArm 35.654113 35.864034 -70.207807
LeftForeArm 15.417098 0.000000 57.061953
LeftHand -12.710665 -0.000000 -8.716783
LeftHandThumb1 -26.253704 0.000000 33.147579
RightShoulder -21.239228 -55.036476 16.294434
RightArm 68.603528 -1.063807 46.680134
RightForeArm 34.562583 0.000000 19.541803
RightHand 3.292790 -0.000000 19.624746
RightHandThumb1 -24.326973 -0.000000 -32.862282
LeftUpLeg -38.632735 12.513044 15.688589
LeftLeg 28.640542 -0.000000 -0.000000
LeftFoot -12.887367 -13.203122 -15.672260
LeftToeBase 12.228952 -0.000000 -0.000000
RightUpLeg -127.380225 -6.612098 20.794138
RightLeg 132.996515 -0.000000 -0.000000
RightFoot 25.487388 4.611771 30.922490
RightToeBase -3.862408 -0.000000 0.000000
